<?xml version="1.0" standalone="no"?>
<!DOCTYPE svg PUBLIC "-//W3C//DTD SVG 20010904//EN"
 "http://www.w3.org/TR/2001/REC-SVG-20010904/DTD/svg10.dtd">
<svg version="1.0" xmlns="http://www.w3.org/2000/svg"
 width="64.000000pt" height="64.000000pt" viewBox="0 0 64.000000 64.000000"
 preserveAspectRatio="xMidYMid meet">

<g transform="translate(0.000000,64.000000) scale(0.100000,-0.100000)"
fill="#000000" stroke="none">
<path d="M0 320 l0 -320 320 0 320 0 0 320 0 320 -320 0 -320 0 0 -320z m143
262 c9 -10 20 -33 23 -50 l7 -32 208 0 c125 0 210 -4 214 -10 5 -9 -46 -197
-60 -220 -4 -6 -73 -10 -166 -10 -147 0 -160 -1 -157 -17 3 -16 21 -19 163
-23 133 -4 160 -8 160 -20 0 -13 -27 -15 -169 -18 -93 -1 -173 1 -177 5 -4 5
-19 82 -34 173 -34 212 -30 200 -70 200 -35 0 -51 12 -40 30 11 17 80 12 98
-8z m157 -442 c11 -11 20 -29 20 -40 0 -26 -34 -60 -60 -60 -26 0 -60 34 -60
60 0 26 34 60 60 60 11 0 29 -9 40 -20z m200 0 c11 -11 20 -29 20 -40 0 -26
-34 -60 -60 -60 -26 0 -60 34 -60 60 0 26 34 60 60 60 11 0 29 -9 40 -20z"/>
</g>
</svg>
