<svg width="36" height="48" viewBox="0 0 36 48" fill="none" xmlns="http://www.w3.org/2000/svg">
<g clip-path="url(#clip0_47_247)">
<path d="M17.9 0C13.1525 0.00529779 8.60115 1.89426 5.24511 5.25217C1.88907 8.61009 0.00264631 13.1625 0 17.91C0 32.62 16.12 47 16.8 47.59C17.1068 47.8522 17.4964 47.9974 17.9 48C18.3044 48.0019 18.6955 47.8561 19 47.59C19.69 46.98 35.81 32.59 35.81 17.91C35.8074 13.1608 33.9196 8.60685 30.5614 5.24864C27.2032 1.89044 22.6492 0.00264949 17.9 0ZM28.3 18.25C28.3 18.25 24.21 21.05 24.11 21.13C23.809 21.3346 23.5679 21.6157 23.4115 21.9443C23.2551 22.273 23.189 22.6374 23.22 23C23.22 23.54 23.04 27.36 23.03 27.84C23.02 28.32 22.79 29.84 21.12 28.34L17.93 25.54C17.6169 25.1948 17.2031 24.9568 16.7472 24.8599C16.2913 24.763 15.8165 24.812 15.39 25L11 26.78C11 26.78 8.4 27.85 9.38 25.49C10.36 23.13 10.96 21.29 11.17 20.68C11.2892 20.3142 11.316 19.9246 11.2479 19.546C11.1799 19.1673 11.0191 18.8114 10.78 18.51C10.54 18.22 8.45 15.45 7.97 14.77C7.97 14.77 6.25 12.77 9.11 12.86L14.11 12.98C14.4511 12.9847 14.7867 12.8934 15.0784 12.7166C15.3702 12.5398 15.6063 12.2846 15.76 11.98C16.56 10.72 18.93 7.75 18.44 8.38C18.85 7.86 19.81 6.56 20.44 8.71C20.44 8.71 21.34 11.53 21.76 12.71C21.866 13.1701 22.1058 13.5884 22.4493 13.9124C22.7928 14.2363 23.2245 14.4512 23.69 14.53L28.19 16.15C28.19 16.15 30.29 16.8 28.31 18.2" fill="white"/>
</g>
<defs>
<clipPath id="clip0_47_247">
<rect width="35.8" height="48" fill="white"/>
</clipPath>
</defs>
</svg>
